 <mxfile host="app.diagrams.net" agent="Mozilla/5.0 (Windows NT 10.0; Win64; x64) AppleWebKit/537.36 (KHTML, like Gecko) Chrome/137.0.0.0 Safari/537.36" version="27.1.4">
  <diagram name="PÃ¡gina-1" id="sV1LYNGNRog0OeS_JSuw">
    <mxGraphModel dx="1959" dy="874" grid="1" gridSize="10" guides="1" tooltips="1" connect="1" arrows="1" fold="1" page="1" pageScale="1" pageWidth="827" pageHeight="1169" math="0" shadow="0">
      <root>
        <mxCell id="0" />
        <mxCell id="1" parent="0" />
        <mxCell id="b8VVlE-H3dJvo7GUzxRo-1" value="Usuario se Logea" style="rounded=0;whiteSpace=wrap;html=1;" vertex="1" parent="1">
          <mxGeometry x="200" y="290" width="120" height="60" as="geometry" />
        </mxCell>
        <mxCell id="b8VVlE-H3dJvo7GUzxRo-17" style="edgeStyle=orthogonalEdgeStyle;rounded=0;orthogonalLoop=1;jettySize=auto;html=1;exitX=0.5;exitY=1;exitDx=0;exitDy=0;exitPerimeter=0;entryX=1;entryY=0.5;entryDx=0;entryDy=0;" edge="1" parent="1" source="b8VVlE-H3dJvo7GUzxRo-3" target="b8VVlE-H3dJvo7GUzxRo-7">
          <mxGeometry relative="1" as="geometry" />
        </mxCell>
        <mxCell id="b8VVlE-H3dJvo7GUzxRo-19" value="NO" style="edgeLabel;html=1;align=center;verticalAlign=middle;resizable=0;points=[];" vertex="1" connectable="0" parent="b8VVlE-H3dJvo7GUzxRo-17">
          <mxGeometry x="0.1045" y="-1" relative="1" as="geometry">
            <mxPoint as="offset" />
          </mxGeometry>
        </mxCell>
        <mxCell id="b8VVlE-H3dJvo7GUzxRo-21" style="edgeStyle=orthogonalEdgeStyle;rounded=0;orthogonalLoop=1;jettySize=auto;html=1;exitX=1;exitY=0.5;exitDx=0;exitDy=0;exitPerimeter=0;entryX=0;entryY=0.5;entryDx=0;entryDy=0;" edge="1" parent="1" source="b8VVlE-H3dJvo7GUzxRo-3" target="b8VVlE-H3dJvo7GUzxRo-20">
          <mxGeometry relative="1" as="geometry" />
        </mxCell>
        <mxCell id="b8VVlE-H3dJvo7GUzxRo-22" value="SI" style="edgeLabel;html=1;align=center;verticalAlign=middle;resizable=0;points=[];" vertex="1" connectable="0" parent="b8VVlE-H3dJvo7GUzxRo-21">
          <mxGeometry x="-0.2121" y="3" relative="1" as="geometry">
            <mxPoint as="offset" />
          </mxGeometry>
        </mxCell>
        <mxCell id="b8VVlE-H3dJvo7GUzxRo-3" value="tiene cuenta" style="strokeWidth=2;html=1;shape=mxgraph.flowchart.decision;whiteSpace=wrap;" vertex="1" parent="1">
          <mxGeometry x="364" y="330" width="100" height="100" as="geometry" />
        </mxCell>
        <mxCell id="b8VVlE-H3dJvo7GUzxRo-16" style="edgeStyle=orthogonalEdgeStyle;rounded=0;orthogonalLoop=1;jettySize=auto;html=1;exitX=0;exitY=0.5;exitDx=0;exitDy=0;exitPerimeter=0;entryX=0.5;entryY=0;entryDx=0;entryDy=0;" edge="1" parent="1" source="b8VVlE-H3dJvo7GUzxRo-6" target="b8VVlE-H3dJvo7GUzxRo-1">
          <mxGeometry relative="1" as="geometry" />
        </mxCell>
        <mxCell id="b8VVlE-H3dJvo7GUzxRo-6" value="Inicio" style="strokeWidth=2;html=1;shape=mxgraph.flowchart.terminator;whiteSpace=wrap;" vertex="1" parent="1">
          <mxGeometry x="364" y="220" width="100" height="60" as="geometry" />
        </mxCell>
        <mxCell id="b8VVlE-H3dJvo7GUzxRo-18" style="edgeStyle=orthogonalEdgeStyle;rounded=0;orthogonalLoop=1;jettySize=auto;html=1;exitX=0;exitY=0.5;exitDx=0;exitDy=0;entryX=0;entryY=0.5;entryDx=0;entryDy=0;" edge="1" parent="1" source="b8VVlE-H3dJvo7GUzxRo-7" target="b8VVlE-H3dJvo7GUzxRo-1">
          <mxGeometry relative="1" as="geometry">
            <Array as="points">
              <mxPoint x="160" y="470" />
              <mxPoint x="160" y="320" />
            </Array>
          </mxGeometry>
        </mxCell>
        <mxCell id="b8VVlE-H3dJvo7GUzxRo-7" value="Usuario se Registra" style="rounded=0;whiteSpace=wrap;html=1;" vertex="1" parent="1">
          <mxGeometry x="200" y="440" width="120" height="60" as="geometry" />
        </mxCell>
        <mxCell id="b8VVlE-H3dJvo7GUzxRo-31" style="edgeStyle=orthogonalEdgeStyle;rounded=0;orthogonalLoop=1;jettySize=auto;html=1;exitX=0;exitY=0.5;exitDx=0;exitDy=0;entryX=1;entryY=0.5;entryDx=0;entryDy=0;" edge="1" parent="1" source="b8VVlE-H3dJvo7GUzxRo-8" target="b8VVlE-H3dJvo7GUzxRo-12">
          <mxGeometry relative="1" as="geometry" />
        </mxCell>
        <mxCell id="b8VVlE-H3dJvo7GUzxRo-8" value="Web llama a mysql&lt;div&gt;y trae las card (Websoket)&lt;/div&gt;" style="rounded=0;whiteSpace=wrap;html=1;" vertex="1" parent="1">
          <mxGeometry x="530" y="620" width="120" height="60" as="geometry" />
        </mxCell>
        <mxCell id="b8VVlE-H3dJvo7GUzxRo-26" style="edgeStyle=orthogonalEdgeStyle;rounded=0;orthogonalLoop=1;jettySize=auto;html=1;exitX=0.5;exitY=1;exitDx=0;exitDy=0;exitPerimeter=0;entryX=0.5;entryY=0;entryDx=0;entryDy=0;" edge="1" parent="1" source="b8VVlE-H3dJvo7GUzxRo-9" target="b8VVlE-H3dJvo7GUzxRo-8">
          <mxGeometry relative="1" as="geometry" />
        </mxCell>
        <mxCell id="b8VVlE-H3dJvo7GUzxRo-27" value="SI" style="edgeLabel;html=1;align=center;verticalAlign=middle;resizable=0;points=[];" vertex="1" connectable="0" parent="b8VVlE-H3dJvo7GUzxRo-26">
          <mxGeometry x="-0.2667" y="3" relative="1" as="geometry">
            <mxPoint x="7" y="3" as="offset" />
          </mxGeometry>
        </mxCell>
        <mxCell id="b8VVlE-H3dJvo7GUzxRo-9" value="El usuario tiene&lt;div&gt;cards&lt;/div&gt;" style="strokeWidth=2;html=1;shape=mxgraph.flowchart.decision;whiteSpace=wrap;" vertex="1" parent="1">
          <mxGeometry x="540" y="460" width="100" height="100" as="geometry" />
        </mxCell>
        <mxCell id="b8VVlE-H3dJvo7GUzxRo-35" style="edgeStyle=orthogonalEdgeStyle;rounded=0;orthogonalLoop=1;jettySize=auto;html=1;exitX=0;exitY=0.5;exitDx=0;exitDy=0;entryX=1;entryY=0.5;entryDx=0;entryDy=0;" edge="1" parent="1" source="b8VVlE-H3dJvo7GUzxRo-12" target="b8VVlE-H3dJvo7GUzxRo-14">
          <mxGeometry relative="1" as="geometry" />
        </mxCell>
        <mxCell id="b8VVlE-H3dJvo7GUzxRo-12" value="Web llama a mysql para cargar la info&lt;div&gt;(Websoket)&lt;/div&gt;" style="rounded=0;whiteSpace=wrap;html=1;" vertex="1" parent="1">
          <mxGeometry x="380" y="620" width="120" height="60" as="geometry" />
        </mxCell>
        <mxCell id="b8VVlE-H3dJvo7GUzxRo-14" value="Web llama a mysql para guardar info&lt;div&gt;(Websoket)&lt;/div&gt;" style="rounded=0;whiteSpace=wrap;html=1;" vertex="1" parent="1">
          <mxGeometry x="220" y="620" width="120" height="60" as="geometry" />
        </mxCell>
        <mxCell id="b8VVlE-H3dJvo7GUzxRo-15" style="edgeStyle=orthogonalEdgeStyle;rounded=0;orthogonalLoop=1;jettySize=auto;html=1;exitX=0.5;exitY=1;exitDx=0;exitDy=0;entryX=0;entryY=0.5;entryDx=0;entryDy=0;entryPerimeter=0;" edge="1" parent="1" source="b8VVlE-H3dJvo7GUzxRo-1" target="b8VVlE-H3dJvo7GUzxRo-3">
          <mxGeometry relative="1" as="geometry" />
        </mxCell>
        <mxCell id="b8VVlE-H3dJvo7GUzxRo-20" value="Inicia la secion" style="rounded=0;whiteSpace=wrap;html=1;" vertex="1" parent="1">
          <mxGeometry x="530" y="350" width="120" height="60" as="geometry" />
        </mxCell>
        <mxCell id="b8VVlE-H3dJvo7GUzxRo-25" style="edgeStyle=orthogonalEdgeStyle;rounded=0;orthogonalLoop=1;jettySize=auto;html=1;exitX=0.5;exitY=1;exitDx=0;exitDy=0;entryX=0.5;entryY=0;entryDx=0;entryDy=0;entryPerimeter=0;" edge="1" parent="1" source="b8VVlE-H3dJvo7GUzxRo-20" target="b8VVlE-H3dJvo7GUzxRo-9">
          <mxGeometry relative="1" as="geometry" />
        </mxCell>
        <mxCell id="b8VVlE-H3dJvo7GUzxRo-36" value="Fin del uso" style="strokeWidth=2;html=1;shape=mxgraph.flowchart.terminator;whiteSpace=wrap;" vertex="1" parent="1">
          <mxGeometry x="380" y="730" width="100" height="60" as="geometry" />
        </mxCell>
        <mxCell id="b8VVlE-H3dJvo7GUzxRo-37" style="edgeStyle=orthogonalEdgeStyle;rounded=0;orthogonalLoop=1;jettySize=auto;html=1;exitX=0.5;exitY=1;exitDx=0;exitDy=0;entryX=0;entryY=0.5;entryDx=0;entryDy=0;entryPerimeter=0;" edge="1" parent="1" source="b8VVlE-H3dJvo7GUzxRo-14" target="b8VVlE-H3dJvo7GUzxRo-36">
          <mxGeometry relative="1" as="geometry" />
        </mxCell>
        <mxCell id="b8VVlE-H3dJvo7GUzxRo-38" value="Usuario se Logea" style="rounded=0;whiteSpace=wrap;html=1;" vertex="1" parent="1">
          <mxGeometry x="1274" y="340" width="120" height="60" as="geometry" />
        </mxCell>
        <mxCell id="b8VVlE-H3dJvo7GUzxRo-63" style="edgeStyle=orthogonalEdgeStyle;rounded=0;orthogonalLoop=1;jettySize=auto;html=1;exitX=0;exitY=0.5;exitDx=0;exitDy=0;exitPerimeter=0;entryX=1;entryY=0.5;entryDx=0;entryDy=0;" edge="1" parent="1" source="b8VVlE-H3dJvo7GUzxRo-43" target="b8VVlE-H3dJvo7GUzxRo-46">
          <mxGeometry relative="1" as="geometry" />
        </mxCell>
        <mxCell id="b8VVlE-H3dJvo7GUzxRo-78" value="No" style="edgeLabel;html=1;align=center;verticalAlign=middle;resizable=0;points=[];" vertex="1" connectable="0" parent="b8VVlE-H3dJvo7GUzxRo-63">
          <mxGeometry x="-0.4091" y="-3" relative="1" as="geometry">
            <mxPoint x="-11" y="-7" as="offset" />
          </mxGeometry>
        </mxCell>
        <mxCell id="b8VVlE-H3dJvo7GUzxRo-71" style="edgeStyle=orthogonalEdgeStyle;rounded=0;orthogonalLoop=1;jettySize=auto;html=1;exitX=0.5;exitY=1;exitDx=0;exitDy=0;exitPerimeter=0;entryX=0.5;entryY=0;entryDx=0;entryDy=0;" edge="1" parent="1" source="b8VVlE-H3dJvo7GUzxRo-43" target="b8VVlE-H3dJvo7GUzxRo-38">
          <mxGeometry relative="1" as="geometry" />
        </mxCell>
        <mxCell id="b8VVlE-H3dJvo7GUzxRo-79" value="Si" style="edgeLabel;html=1;align=center;verticalAlign=middle;resizable=0;points=[];" vertex="1" connectable="0" parent="b8VVlE-H3dJvo7GUzxRo-71">
          <mxGeometry x="-0.45" y="-4" relative="1" as="geometry">
            <mxPoint x="-10" y="9" as="offset" />
          </mxGeometry>
        </mxCell>
        <mxCell id="b8VVlE-H3dJvo7GUzxRo-43" value="tiene cuenta" style="strokeWidth=2;html=1;shape=mxgraph.flowchart.decision;whiteSpace=wrap;" vertex="1" parent="1">
          <mxGeometry x="1284" y="200" width="100" height="100" as="geometry" />
        </mxCell>
        <mxCell id="b8VVlE-H3dJvo7GUzxRo-45" value="Inicio" style="strokeWidth=2;html=1;shape=mxgraph.flowchart.terminator;whiteSpace=wrap;" vertex="1" parent="1">
          <mxGeometry x="1284" y="100" width="100" height="60" as="geometry" />
        </mxCell>
        <mxCell id="b8VVlE-H3dJvo7GUzxRo-72" style="edgeStyle=orthogonalEdgeStyle;rounded=0;orthogonalLoop=1;jettySize=auto;html=1;exitX=0.5;exitY=1;exitDx=0;exitDy=0;entryX=0;entryY=0.5;entryDx=0;entryDy=0;" edge="1" parent="1" source="b8VVlE-H3dJvo7GUzxRo-46" target="b8VVlE-H3dJvo7GUzxRo-38">
          <mxGeometry relative="1" as="geometry" />
        </mxCell>
        <mxCell id="b8VVlE-H3dJvo7GUzxRo-46" value="Usuario se Registra" style="rounded=0;whiteSpace=wrap;html=1;" vertex="1" parent="1">
          <mxGeometry x="1120" y="220" width="120" height="60" as="geometry" />
        </mxCell>
        <mxCell id="b8VVlE-H3dJvo7GUzxRo-89" style="edgeStyle=orthogonalEdgeStyle;rounded=0;orthogonalLoop=1;jettySize=auto;html=1;exitX=0.5;exitY=1;exitDx=0;exitDy=0;entryX=1;entryY=0.5;entryDx=0;entryDy=0;" edge="1" parent="1" source="b8VVlE-H3dJvo7GUzxRo-48" target="b8VVlE-H3dJvo7GUzxRo-85">
          <mxGeometry relative="1" as="geometry" />
        </mxCell>
        <mxCell id="b8VVlE-H3dJvo7GUzxRo-48" value="Web llama a mysql&lt;div&gt;y trae las card&amp;nbsp;&lt;/div&gt;" style="rounded=0;whiteSpace=wrap;html=1;" vertex="1" parent="1">
          <mxGeometry x="1450" y="710" width="120" height="60" as="geometry" />
        </mxCell>
        <mxCell id="b8VVlE-H3dJvo7GUzxRo-84" style="edgeStyle=orthogonalEdgeStyle;rounded=0;orthogonalLoop=1;jettySize=auto;html=1;exitX=1;exitY=0.5;exitDx=0;exitDy=0;exitPerimeter=0;entryX=0;entryY=0.5;entryDx=0;entryDy=0;" edge="1" parent="1" source="b8VVlE-H3dJvo7GUzxRo-51" target="b8VVlE-H3dJvo7GUzxRo-48">
          <mxGeometry relative="1" as="geometry" />
        </mxCell>
        <mxCell id="b8VVlE-H3dJvo7GUzxRo-88" value="SI" style="edgeLabel;html=1;align=center;verticalAlign=middle;resizable=0;points=[];" vertex="1" connectable="0" parent="b8VVlE-H3dJvo7GUzxRo-84">
          <mxGeometry x="-0.1212" relative="1" as="geometry">
            <mxPoint y="-10" as="offset" />
          </mxGeometry>
        </mxCell>
        <mxCell id="b8VVlE-H3dJvo7GUzxRo-86" style="edgeStyle=orthogonalEdgeStyle;rounded=0;orthogonalLoop=1;jettySize=auto;html=1;exitX=0.5;exitY=1;exitDx=0;exitDy=0;exitPerimeter=0;entryX=0.5;entryY=0;entryDx=0;entryDy=0;" edge="1" parent="1" source="b8VVlE-H3dJvo7GUzxRo-51" target="b8VVlE-H3dJvo7GUzxRo-85">
          <mxGeometry relative="1" as="geometry" />
        </mxCell>
        <mxCell id="b8VVlE-H3dJvo7GUzxRo-87" value="NO" style="edgeLabel;html=1;align=center;verticalAlign=middle;resizable=0;points=[];" vertex="1" connectable="0" parent="b8VVlE-H3dJvo7GUzxRo-86">
          <mxGeometry x="-0.2" y="4" relative="1" as="geometry">
            <mxPoint x="12" as="offset" />
          </mxGeometry>
        </mxCell>
        <mxCell id="b8VVlE-H3dJvo7GUzxRo-51" value="El usuario tiene&lt;div&gt;cards&lt;/div&gt;" style="strokeWidth=2;html=1;shape=mxgraph.flowchart.decision;whiteSpace=wrap;" vertex="1" parent="1">
          <mxGeometry x="1284" y="690" width="100" height="100" as="geometry" />
        </mxCell>
        <mxCell id="b8VVlE-H3dJvo7GUzxRo-56" value="Inicia la secion" style="rounded=0;whiteSpace=wrap;html=1;" vertex="1" parent="1">
          <mxGeometry x="1274" y="585" width="120" height="60" as="geometry" />
        </mxCell>
        <mxCell id="b8VVlE-H3dJvo7GUzxRo-58" value="Web llama a mysql para guardar info&lt;div&gt;(Websoket)&lt;/div&gt;" style="strokeWidth=2;html=1;shape=mxgraph.flowchart.terminator;whiteSpace=wrap;" vertex="1" parent="1">
          <mxGeometry x="2424" y="760" width="100" height="60" as="geometry" />
        </mxCell>
        <mxCell id="b8VVlE-H3dJvo7GUzxRo-61" style="edgeStyle=orthogonalEdgeStyle;rounded=0;orthogonalLoop=1;jettySize=auto;html=1;exitX=0.5;exitY=1;exitDx=0;exitDy=0;exitPerimeter=0;entryX=0.5;entryY=0;entryDx=0;entryDy=0;entryPerimeter=0;" edge="1" parent="1" source="b8VVlE-H3dJvo7GUzxRo-45" target="b8VVlE-H3dJvo7GUzxRo-43">
          <mxGeometry relative="1" as="geometry" />
        </mxCell>
        <mxCell id="b8VVlE-H3dJvo7GUzxRo-74" style="edgeStyle=orthogonalEdgeStyle;rounded=0;orthogonalLoop=1;jettySize=auto;html=1;exitX=0.5;exitY=1;exitDx=0;exitDy=0;exitPerimeter=0;entryX=0.5;entryY=0;entryDx=0;entryDy=0;" edge="1" parent="1" source="b8VVlE-H3dJvo7GUzxRo-67" target="b8VVlE-H3dJvo7GUzxRo-56">
          <mxGeometry relative="1" as="geometry" />
        </mxCell>
        <mxCell id="b8VVlE-H3dJvo7GUzxRo-76" style="edgeStyle=orthogonalEdgeStyle;rounded=0;orthogonalLoop=1;jettySize=auto;html=1;exitX=1;exitY=0.5;exitDx=0;exitDy=0;exitPerimeter=0;entryX=0;entryY=0.5;entryDx=0;entryDy=0;" edge="1" parent="1" source="b8VVlE-H3dJvo7GUzxRo-67" target="b8VVlE-H3dJvo7GUzxRo-75">
          <mxGeometry relative="1" as="geometry" />
        </mxCell>
        <mxCell id="b8VVlE-H3dJvo7GUzxRo-80" value="" style="edgeStyle=orthogonalEdgeStyle;rounded=0;orthogonalLoop=1;jettySize=auto;html=1;" edge="1" parent="1" source="b8VVlE-H3dJvo7GUzxRo-67" target="b8VVlE-H3dJvo7GUzxRo-56">
          <mxGeometry relative="1" as="geometry" />
        </mxCell>
        <mxCell id="b8VVlE-H3dJvo7GUzxRo-81" value="SI" style="edgeLabel;html=1;align=center;verticalAlign=middle;resizable=0;points=[];" vertex="1" connectable="0" parent="b8VVlE-H3dJvo7GUzxRo-80">
          <mxGeometry x="-0.5111" y="2" relative="1" as="geometry">
            <mxPoint x="14" y="9" as="offset" />
          </mxGeometry>
        </mxCell>
        <mxCell id="b8VVlE-H3dJvo7GUzxRo-67" value="Credenciales estan correctas" style="strokeWidth=2;html=1;shape=mxgraph.flowchart.decision;whiteSpace=wrap;" vertex="1" parent="1">
          <mxGeometry x="1284" y="440" width="100" height="100" as="geometry" />
        </mxCell>
        <mxCell id="b8VVlE-H3dJvo7GUzxRo-73" style="edgeStyle=orthogonalEdgeStyle;rounded=0;orthogonalLoop=1;jettySize=auto;html=1;exitX=0.5;exitY=1;exitDx=0;exitDy=0;entryX=0.5;entryY=0;entryDx=0;entryDy=0;entryPerimeter=0;" edge="1" parent="1" source="b8VVlE-H3dJvo7GUzxRo-38" target="b8VVlE-H3dJvo7GUzxRo-67">
          <mxGeometry relative="1" as="geometry" />
        </mxCell>
        <mxCell id="b8VVlE-H3dJvo7GUzxRo-77" style="edgeStyle=orthogonalEdgeStyle;rounded=0;orthogonalLoop=1;jettySize=auto;html=1;exitX=0.5;exitY=0;exitDx=0;exitDy=0;entryX=1;entryY=0.5;entryDx=0;entryDy=0;" edge="1" parent="1" source="b8VVlE-H3dJvo7GUzxRo-75" target="b8VVlE-H3dJvo7GUzxRo-38">
          <mxGeometry relative="1" as="geometry" />
        </mxCell>
        <mxCell id="b8VVlE-H3dJvo7GUzxRo-75" value="ContraseÃ±a incorrecta" style="rounded=0;whiteSpace=wrap;html=1;" vertex="1" parent="1">
          <mxGeometry x="1450" y="460" width="120" height="60" as="geometry" />
        </mxCell>
        <mxCell id="b8VVlE-H3dJvo7GUzxRo-82" value="NO" style="edgeLabel;html=1;align=center;verticalAlign=middle;resizable=0;points=[];" vertex="1" connectable="0" parent="1">
          <mxGeometry x="1440" y="570" as="geometry">
            <mxPoint x="-26" y="-88" as="offset" />
          </mxGeometry>
        </mxCell>
        <mxCell id="b8VVlE-H3dJvo7GUzxRo-83" style="edgeStyle=orthogonalEdgeStyle;rounded=0;orthogonalLoop=1;jettySize=auto;html=1;exitX=0.5;exitY=1;exitDx=0;exitDy=0;entryX=0.5;entryY=0;entryDx=0;entryDy=0;entryPerimeter=0;" edge="1" parent="1" source="b8VVlE-H3dJvo7GUzxRo-56" target="b8VVlE-H3dJvo7GUzxRo-51">
          <mxGeometry relative="1" as="geometry" />
        </mxCell>
        <mxCell id="b8VVlE-H3dJvo7GUzxRo-85" value="Disponible para usar" style="rounded=0;whiteSpace=wrap;html=1;" vertex="1" parent="1">
          <mxGeometry x="1274" y="860" width="120" height="60" as="geometry" />
        </mxCell>
        <mxCell id="b8VVlE-H3dJvo7GUzxRo-100" style="edgeStyle=orthogonalEdgeStyle;rounded=0;orthogonalLoop=1;jettySize=auto;html=1;exitX=1;exitY=0.5;exitDx=0;exitDy=0;exitPerimeter=0;entryX=0;entryY=0.5;entryDx=0;entryDy=0;" edge="1" parent="1" source="b8VVlE-H3dJvo7GUzxRo-90" target="b8VVlE-H3dJvo7GUzxRo-97">
          <mxGeometry relative="1" as="geometry" />
        </mxCell>
        <mxCell id="b8VVlE-H3dJvo7GUzxRo-106" value="SI" style="edgeLabel;html=1;align=center;verticalAlign=middle;resizable=0;points=[];" vertex="1" connectable="0" parent="b8VVlE-H3dJvo7GUzxRo-100">
          <mxGeometry x="-0.36" relative="1" as="geometry">
            <mxPoint y="-20" as="offset" />
          </mxGeometry>
        </mxCell>
        <mxCell id="b8VVlE-H3dJvo7GUzxRo-90" value="El usuario quiere crear una&lt;div&gt;cards&lt;/div&gt;" style="strokeWidth=2;html=1;shape=mxgraph.flowchart.decision;whiteSpace=wrap;" vertex="1" parent="1">
          <mxGeometry x="1760" y="230" width="120" height="120" as="geometry" />
        </mxCell>
        <mxCell id="b8VVlE-H3dJvo7GUzxRo-91" value="Dentro del index" style="strokeWidth=2;html=1;shape=mxgraph.flowchart.terminator;whiteSpace=wrap;" vertex="1" parent="1">
          <mxGeometry x="1770" y="120" width="100" height="60" as="geometry" />
        </mxCell>
        <mxCell id="b8VVlE-H3dJvo7GUzxRo-109" style="edgeStyle=orthogonalEdgeStyle;rounded=0;orthogonalLoop=1;jettySize=auto;html=1;exitX=1;exitY=0.5;exitDx=0;exitDy=0;exitPerimeter=0;entryX=0;entryY=0.5;entryDx=0;entryDy=0;" edge="1" parent="1" source="b8VVlE-H3dJvo7GUzxRo-96" target="b8VVlE-H3dJvo7GUzxRo-108">
          <mxGeometry relative="1" as="geometry" />
        </mxCell>
        <mxCell id="b8VVlE-H3dJvo7GUzxRo-116" value="SI" style="edgeLabel;html=1;align=center;verticalAlign=middle;resizable=0;points=[];" vertex="1" connectable="0" parent="b8VVlE-H3dJvo7GUzxRo-109">
          <mxGeometry x="-0.2" y="4" relative="1" as="geometry">
            <mxPoint as="offset" />
          </mxGeometry>
        </mxCell>
        <mxCell id="b8VVlE-H3dJvo7GUzxRo-96" value="El usuario quiere Eliminar una&lt;div&gt;cards&lt;/div&gt;" style="strokeWidth=2;html=1;shape=mxgraph.flowchart.decision;whiteSpace=wrap;" vertex="1" parent="1">
          <mxGeometry x="1760" y="400" width="120" height="120" as="geometry" />
        </mxCell>
        <mxCell id="b8VVlE-H3dJvo7GUzxRo-101" style="edgeStyle=orthogonalEdgeStyle;rounded=0;orthogonalLoop=1;jettySize=auto;html=1;exitX=1;exitY=0.5;exitDx=0;exitDy=0;entryX=0;entryY=0.5;entryDx=0;entryDy=0;" edge="1" parent="1" source="b8VVlE-H3dJvo7GUzxRo-97" target="b8VVlE-H3dJvo7GUzxRo-98">
          <mxGeometry relative="1" as="geometry" />
        </mxCell>
        <mxCell id="b8VVlE-H3dJvo7GUzxRo-97" value="Boton Crear" style="rounded=0;whiteSpace=wrap;html=1;" vertex="1" parent="1">
          <mxGeometry x="1930" y="260" width="120" height="60" as="geometry" />
        </mxCell>
        <mxCell id="b8VVlE-H3dJvo7GUzxRo-103" style="edgeStyle=orthogonalEdgeStyle;rounded=0;orthogonalLoop=1;jettySize=auto;html=1;exitX=0.5;exitY=1;exitDx=0;exitDy=0;entryX=0.5;entryY=0;entryDx=0;entryDy=0;" edge="1" parent="1" source="b8VVlE-H3dJvo7GUzxRo-98" target="b8VVlE-H3dJvo7GUzxRo-99">
          <mxGeometry relative="1" as="geometry" />
        </mxCell>
        <mxCell id="b8VVlE-H3dJvo7GUzxRo-98" value="ingresar Titulo e imagen(opcional)" style="rounded=0;whiteSpace=wrap;html=1;" vertex="1" parent="1">
          <mxGeometry x="2080" y="260" width="120" height="60" as="geometry" />
        </mxCell>
        <mxCell id="b8VVlE-H3dJvo7GUzxRo-99" value="Card creada" style="rounded=0;whiteSpace=wrap;html=1;" vertex="1" parent="1">
          <mxGeometry x="2080" y="380" width="120" height="60" as="geometry" />
        </mxCell>
        <mxCell id="b8VVlE-H3dJvo7GUzxRo-104" style="edgeStyle=orthogonalEdgeStyle;rounded=0;orthogonalLoop=1;jettySize=auto;html=1;exitX=1;exitY=0.5;exitDx=0;exitDy=0;exitPerimeter=0;entryX=0.5;entryY=0;entryDx=0;entryDy=0;entryPerimeter=0;" edge="1" parent="1" source="b8VVlE-H3dJvo7GUzxRo-91" target="b8VVlE-H3dJvo7GUzxRo-90">
          <mxGeometry relative="1" as="geometry" />
        </mxCell>
        <mxCell id="b8VVlE-H3dJvo7GUzxRo-105" style="edgeStyle=orthogonalEdgeStyle;rounded=0;orthogonalLoop=1;jettySize=auto;html=1;exitX=0.5;exitY=1;exitDx=0;exitDy=0;exitPerimeter=0;entryX=0.5;entryY=0;entryDx=0;entryDy=0;entryPerimeter=0;" edge="1" parent="1" source="b8VVlE-H3dJvo7GUzxRo-90" target="b8VVlE-H3dJvo7GUzxRo-96">
          <mxGeometry relative="1" as="geometry" />
        </mxCell>
        <mxCell id="b8VVlE-H3dJvo7GUzxRo-107" value="NO" style="edgeLabel;html=1;align=center;verticalAlign=middle;resizable=0;points=[];" vertex="1" connectable="0" parent="b8VVlE-H3dJvo7GUzxRo-105">
          <mxGeometry x="-0.2" y="-3" relative="1" as="geometry">
            <mxPoint x="13" as="offset" />
          </mxGeometry>
        </mxCell>
        <mxCell id="b8VVlE-H3dJvo7GUzxRo-111" style="edgeStyle=orthogonalEdgeStyle;rounded=0;orthogonalLoop=1;jettySize=auto;html=1;exitX=0.5;exitY=1;exitDx=0;exitDy=0;entryX=0.5;entryY=0;entryDx=0;entryDy=0;" edge="1" parent="1" source="b8VVlE-H3dJvo7GUzxRo-108" target="b8VVlE-H3dJvo7GUzxRo-110">
          <mxGeometry relative="1" as="geometry" />
        </mxCell>
        <mxCell id="b8VVlE-H3dJvo7GUzxRo-108" value="Boton Selecionar" style="rounded=0;whiteSpace=wrap;html=1;" vertex="1" parent="1">
          <mxGeometry x="1920" y="430" width="120" height="60" as="geometry" />
        </mxCell>
        <mxCell id="b8VVlE-H3dJvo7GUzxRo-113" style="edgeStyle=orthogonalEdgeStyle;rounded=0;orthogonalLoop=1;jettySize=auto;html=1;exitX=0.5;exitY=1;exitDx=0;exitDy=0;entryX=0.5;entryY=0;entryDx=0;entryDy=0;" edge="1" parent="1" source="b8VVlE-H3dJvo7GUzxRo-110" target="b8VVlE-H3dJvo7GUzxRo-112">
          <mxGeometry relative="1" as="geometry" />
        </mxCell>
        <mxCell id="b8VVlE-H3dJvo7GUzxRo-110" value="Selecionar card a eliminar" style="rounded=0;whiteSpace=wrap;html=1;" vertex="1" parent="1">
          <mxGeometry x="1920" y="510" width="120" height="60" as="geometry" />
        </mxCell>
        <mxCell id="b8VVlE-H3dJvo7GUzxRo-120" style="edgeStyle=orthogonalEdgeStyle;rounded=0;orthogonalLoop=1;jettySize=auto;html=1;exitX=1;exitY=0.5;exitDx=0;exitDy=0;entryX=0.5;entryY=1;entryDx=0;entryDy=0;" edge="1" parent="1" source="b8VVlE-H3dJvo7GUzxRo-112" target="b8VVlE-H3dJvo7GUzxRo-119">
          <mxGeometry relative="1" as="geometry" />
        </mxCell>
        <mxCell id="b8VVlE-H3dJvo7GUzxRo-112" value="Boton borrar" style="rounded=0;whiteSpace=wrap;html=1;" vertex="1" parent="1">
          <mxGeometry x="1920" y="600" width="120" height="60" as="geometry" />
        </mxCell>
        <mxCell id="b8VVlE-H3dJvo7GUzxRo-114" value="Web llama a mysql para cargar la info&lt;div&gt;(Websoket)&lt;/div&gt;" style="rounded=0;whiteSpace=wrap;html=1;" vertex="1" parent="1">
          <mxGeometry x="1760" y="740" width="120" height="60" as="geometry" />
        </mxCell>
        <mxCell id="b8VVlE-H3dJvo7GUzxRo-124" style="edgeStyle=orthogonalEdgeStyle;rounded=0;orthogonalLoop=1;jettySize=auto;html=1;exitX=0;exitY=0.5;exitDx=0;exitDy=0;exitPerimeter=0;entryX=0.5;entryY=1;entryDx=0;entryDy=0;" edge="1" parent="1" source="b8VVlE-H3dJvo7GUzxRo-115" target="b8VVlE-H3dJvo7GUzxRo-123">
          <mxGeometry relative="1" as="geometry" />
        </mxCell>
        <mxCell id="b8VVlE-H3dJvo7GUzxRo-125" value="No" style="edgeLabel;html=1;align=center;verticalAlign=middle;resizable=0;points=[];" vertex="1" connectable="0" parent="b8VVlE-H3dJvo7GUzxRo-124">
          <mxGeometry x="-0.3455" y="5" relative="1" as="geometry">
            <mxPoint x="25" y="-140" as="offset" />
          </mxGeometry>
        </mxCell>
        <mxCell id="b8VVlE-H3dJvo7GUzxRo-127" style="edgeStyle=orthogonalEdgeStyle;rounded=0;orthogonalLoop=1;jettySize=auto;html=1;exitX=0.5;exitY=1;exitDx=0;exitDy=0;exitPerimeter=0;entryX=0.5;entryY=0;entryDx=0;entryDy=0;" edge="1" parent="1" source="b8VVlE-H3dJvo7GUzxRo-115" target="b8VVlE-H3dJvo7GUzxRo-114">
          <mxGeometry relative="1" as="geometry" />
        </mxCell>
        <mxCell id="b8VVlE-H3dJvo7GUzxRo-128" value="SI" style="edgeLabel;html=1;align=center;verticalAlign=middle;resizable=0;points=[];" vertex="1" connectable="0" parent="b8VVlE-H3dJvo7GUzxRo-127">
          <mxGeometry x="-0.4333" y="-3" relative="1" as="geometry">
            <mxPoint x="13" y="3" as="offset" />
          </mxGeometry>
        </mxCell>
        <mxCell id="b8VVlE-H3dJvo7GUzxRo-115" value="quieres ingresar a una card" style="strokeWidth=2;html=1;shape=mxgraph.flowchart.decision;whiteSpace=wrap;" vertex="1" parent="1">
          <mxGeometry x="1760" y="560" width="120" height="120" as="geometry" />
        </mxCell>
        <mxCell id="b8VVlE-H3dJvo7GUzxRo-117" style="edgeStyle=orthogonalEdgeStyle;rounded=0;orthogonalLoop=1;jettySize=auto;html=1;exitX=0.5;exitY=1;exitDx=0;exitDy=0;exitPerimeter=0;entryX=0.5;entryY=0;entryDx=0;entryDy=0;entryPerimeter=0;" edge="1" parent="1" source="b8VVlE-H3dJvo7GUzxRo-96" target="b8VVlE-H3dJvo7GUzxRo-115">
          <mxGeometry relative="1" as="geometry" />
        </mxCell>
        <mxCell id="b8VVlE-H3dJvo7GUzxRo-118" value="NO" style="edgeLabel;html=1;align=center;verticalAlign=middle;resizable=0;points=[];" vertex="1" connectable="0" parent="b8VVlE-H3dJvo7GUzxRo-117">
          <mxGeometry x="-0.45" y="2" relative="1" as="geometry">
            <mxPoint x="18" as="offset" />
          </mxGeometry>
        </mxCell>
        <mxCell id="b8VVlE-H3dJvo7GUzxRo-119" value="Card borrada" style="rounded=0;whiteSpace=wrap;html=1;" vertex="1" parent="1">
          <mxGeometry x="2080" y="510" width="120" height="60" as="geometry" />
        </mxCell>
        <mxCell id="b8VVlE-H3dJvo7GUzxRo-123" value="No se para que abiste la pagina" style="rounded=0;whiteSpace=wrap;html=1;" vertex="1" parent="1">
          <mxGeometry x="1620" y="120" width="120" height="60" as="geometry" />
        </mxCell>
        <mxCell id="b8VVlE-H3dJvo7GUzxRo-126" style="edgeStyle=orthogonalEdgeStyle;rounded=0;orthogonalLoop=1;jettySize=auto;html=1;exitX=1;exitY=0.5;exitDx=0;exitDy=0;entryX=0;entryY=0.5;entryDx=0;entryDy=0;entryPerimeter=0;" edge="1" parent="1" source="b8VVlE-H3dJvo7GUzxRo-123" target="b8VVlE-H3dJvo7GUzxRo-91">
          <mxGeometry relative="1" as="geometry" />
        </mxCell>
        <mxCell id="b8VVlE-H3dJvo7GUzxRo-132" value="" style="edgeStyle=orthogonalEdgeStyle;rounded=0;orthogonalLoop=1;jettySize=auto;html=1;" edge="1" parent="1" source="b8VVlE-H3dJvo7GUzxRo-129" target="b8VVlE-H3dJvo7GUzxRo-131">
          <mxGeometry relative="1" as="geometry" />
        </mxCell>
        <mxCell id="b8VVlE-H3dJvo7GUzxRo-133" style="edgeStyle=orthogonalEdgeStyle;rounded=0;orthogonalLoop=1;jettySize=auto;html=1;exitX=0.5;exitY=1;exitDx=0;exitDy=0;exitPerimeter=0;" edge="1" parent="1" source="b8VVlE-H3dJvo7GUzxRo-129">
          <mxGeometry relative="1" as="geometry">
            <mxPoint x="2474" y="340" as="targetPoint" />
          </mxGeometry>
        </mxCell>
        <mxCell id="b8VVlE-H3dJvo7GUzxRo-129" value="Dentro de tablas" style="strokeWidth=2;html=1;shape=mxgraph.flowchart.terminator;whiteSpace=wrap;" vertex="1" parent="1">
          <mxGeometry x="2424" y="230" width="100" height="60" as="geometry" />
        </mxCell>
        <mxCell id="b8VVlE-H3dJvo7GUzxRo-137" style="edgeStyle=orthogonalEdgeStyle;rounded=0;orthogonalLoop=1;jettySize=auto;html=1;exitX=1;exitY=0.5;exitDx=0;exitDy=0;entryX=0.5;entryY=0;entryDx=0;entryDy=0;" edge="1" parent="1" source="b8VVlE-H3dJvo7GUzxRo-131" target="b8VVlE-H3dJvo7GUzxRo-135">
          <mxGeometry relative="1" as="geometry" />
        </mxCell>
        <mxCell id="b8VVlE-H3dJvo7GUzxRo-138" style="edgeStyle=orthogonalEdgeStyle;rounded=0;orthogonalLoop=1;jettySize=auto;html=1;exitX=0;exitY=0.5;exitDx=0;exitDy=0;entryX=0.5;entryY=0;entryDx=0;entryDy=0;" edge="1" parent="1" source="b8VVlE-H3dJvo7GUzxRo-131" target="b8VVlE-H3dJvo7GUzxRo-134">
          <mxGeometry relative="1" as="geometry" />
        </mxCell>
        <mxCell id="b8VVlE-H3dJvo7GUzxRo-139" style="edgeStyle=orthogonalEdgeStyle;rounded=0;orthogonalLoop=1;jettySize=auto;html=1;exitX=0.5;exitY=1;exitDx=0;exitDy=0;" edge="1" parent="1" source="b8VVlE-H3dJvo7GUzxRo-131" target="b8VVlE-H3dJvo7GUzxRo-136">
          <mxGeometry relative="1" as="geometry" />
        </mxCell>
        <mxCell id="b8VVlE-H3dJvo7GUzxRo-131" value="Selector" style="verticalLabelPosition=bottom;verticalAlign=top;html=1;shape=hexagon;perimeter=hexagonPerimeter2;arcSize=6;size=0.26;" vertex="1" parent="1">
          <mxGeometry x="2424" y="330" width="100" height="60" as="geometry" />
        </mxCell>
        <mxCell id="b8VVlE-H3dJvo7GUzxRo-145" style="edgeStyle=orthogonalEdgeStyle;rounded=0;orthogonalLoop=1;jettySize=auto;html=1;exitX=0.5;exitY=1;exitDx=0;exitDy=0;entryX=0.5;entryY=0;entryDx=0;entryDy=0;" edge="1" parent="1" source="b8VVlE-H3dJvo7GUzxRo-134" target="b8VVlE-H3dJvo7GUzxRo-140">
          <mxGeometry relative="1" as="geometry" />
        </mxCell>
        <mxCell id="b8VVlE-H3dJvo7GUzxRo-134" value="Editar" style="rounded=0;whiteSpace=wrap;html=1;" vertex="1" parent="1">
          <mxGeometry x="2240" y="430" width="120" height="60" as="geometry" />
        </mxCell>
        <mxCell id="b8VVlE-H3dJvo7GUzxRo-135" value="Agregar" style="rounded=0;whiteSpace=wrap;html=1;" vertex="1" parent="1">
          <mxGeometry x="2590" y="430" width="120" height="60" as="geometry" />
        </mxCell>
        <mxCell id="b8VVlE-H3dJvo7GUzxRo-146" style="edgeStyle=orthogonalEdgeStyle;rounded=0;orthogonalLoop=1;jettySize=auto;html=1;exitX=0.5;exitY=1;exitDx=0;exitDy=0;entryX=0.5;entryY=0;entryDx=0;entryDy=0;" edge="1" parent="1" source="b8VVlE-H3dJvo7GUzxRo-136" target="b8VVlE-H3dJvo7GUzxRo-143">
          <mxGeometry relative="1" as="geometry" />
        </mxCell>
        <mxCell id="b8VVlE-H3dJvo7GUzxRo-136" value="Eliminar" style="rounded=0;whiteSpace=wrap;html=1;" vertex="1" parent="1">
          <mxGeometry x="2414" y="430" width="120" height="60" as="geometry" />
        </mxCell>
        <mxCell id="b8VVlE-H3dJvo7GUzxRo-148" style="edgeStyle=orthogonalEdgeStyle;rounded=0;orthogonalLoop=1;jettySize=auto;html=1;exitX=0.5;exitY=1;exitDx=0;exitDy=0;entryX=0;entryY=0.5;entryDx=0;entryDy=0;" edge="1" parent="1" source="b8VVlE-H3dJvo7GUzxRo-140" target="b8VVlE-H3dJvo7GUzxRo-141">
          <mxGeometry relative="1" as="geometry" />
        </mxCell>
        <mxCell id="b8VVlE-H3dJvo7GUzxRo-140" value="Escribir datos" style="rounded=0;whiteSpace=wrap;html=1;" vertex="1" parent="1">
          <mxGeometry x="2240" y="520" width="120" height="60" as="geometry" />
        </mxCell>
        <mxCell id="b8VVlE-H3dJvo7GUzxRo-141" value="Guardar" style="rounded=0;whiteSpace=wrap;html=1;" vertex="1" parent="1">
          <mxGeometry x="2414" y="670" width="120" height="60" as="geometry" />
        </mxCell>
        <mxCell id="b8VVlE-H3dJvo7GUzxRo-149" style="edgeStyle=orthogonalEdgeStyle;rounded=0;orthogonalLoop=1;jettySize=auto;html=1;exitX=0.5;exitY=1;exitDx=0;exitDy=0;entryX=0.5;entryY=0;entryDx=0;entryDy=0;" edge="1" parent="1" source="b8VVlE-H3dJvo7GUzxRo-143" target="b8VVlE-H3dJvo7GUzxRo-141">
          <mxGeometry relative="1" as="geometry" />
        </mxCell>
        <mxCell id="b8VVlE-H3dJvo7GUzxRo-143" value="Se Eliminan los datos" style="rounded=0;whiteSpace=wrap;html=1;" vertex="1" parent="1">
          <mxGeometry x="2414" y="520" width="120" height="60" as="geometry" />
        </mxCell>
        <mxCell id="b8VVlE-H3dJvo7GUzxRo-147" style="edgeStyle=orthogonalEdgeStyle;rounded=0;orthogonalLoop=1;jettySize=auto;html=1;exitX=1;exitY=0.5;exitDx=0;exitDy=0;exitPerimeter=0;entryX=1;entryY=0.5;entryDx=0;entryDy=0;" edge="1" parent="1" source="b8VVlE-H3dJvo7GUzxRo-144" target="b8VVlE-H3dJvo7GUzxRo-135">
          <mxGeometry relative="1" as="geometry" />
        </mxCell>
        <mxCell id="b8VVlE-H3dJvo7GUzxRo-152" style="edgeStyle=orthogonalEdgeStyle;rounded=0;orthogonalLoop=1;jettySize=auto;html=1;exitX=0.5;exitY=1;exitDx=0;exitDy=0;exitPerimeter=0;entryX=0.5;entryY=0;entryDx=0;entryDy=0;" edge="1" parent="1" source="b8VVlE-H3dJvo7GUzxRo-144" target="b8VVlE-H3dJvo7GUzxRo-150">
          <mxGeometry relative="1" as="geometry" />
        </mxCell>
        <mxCell id="b8VVlE-H3dJvo7GUzxRo-144" value="Estan correctos" style="strokeWidth=2;html=1;shape=mxgraph.flowchart.decision;whiteSpace=wrap;" vertex="1" parent="1">
          <mxGeometry x="2590" y="530" width="120" height="120" as="geometry" />
        </mxCell>
        <mxCell id="b8VVlE-H3dJvo7GUzxRo-153" style="edgeStyle=orthogonalEdgeStyle;rounded=0;orthogonalLoop=1;jettySize=auto;html=1;exitX=0;exitY=0.5;exitDx=0;exitDy=0;entryX=1;entryY=0.5;entryDx=0;entryDy=0;" edge="1" parent="1" source="b8VVlE-H3dJvo7GUzxRo-150" target="b8VVlE-H3dJvo7GUzxRo-141">
          <mxGeometry relative="1" as="geometry" />
        </mxCell>
        <mxCell id="b8VVlE-H3dJvo7GUzxRo-150" value="Se agregan" style="rounded=0;whiteSpace=wrap;html=1;" vertex="1" parent="1">
          <mxGeometry x="2590" y="670" width="120" height="60" as="geometry" />
        </mxCell>
        <mxCell id="b8VVlE-H3dJvo7GUzxRo-151" style="edgeStyle=orthogonalEdgeStyle;rounded=0;orthogonalLoop=1;jettySize=auto;html=1;exitX=0.5;exitY=1;exitDx=0;exitDy=0;entryX=0.5;entryY=0;entryDx=0;entryDy=0;entryPerimeter=0;" edge="1" parent="1" source="b8VVlE-H3dJvo7GUzxRo-135" target="b8VVlE-H3dJvo7GUzxRo-144">
          <mxGeometry relative="1" as="geometry" />
        </mxCell>
        <mxCell id="b8VVlE-H3dJvo7GUzxRo-154" style="edgeStyle=orthogonalEdgeStyle;rounded=0;orthogonalLoop=1;jettySize=auto;html=1;exitX=0.5;exitY=1;exitDx=0;exitDy=0;entryX=0.5;entryY=0;entryDx=0;entryDy=0;entryPerimeter=0;" edge="1" parent="1" source="b8VVlE-H3dJvo7GUzxRo-141" target="b8VVlE-H3dJvo7GUzxRo-58">
          <mxGeometry relative="1" as="geometry" />
        </mxCell>
      </root>
    </mxGraphModel>
  </diagram>
</mxfile>
